<svg xmlns="http://www.w3.org/2000/svg" xmlns:xlink="http://www.w3.org/1999/xlink" version="1.1" x="0px" y="0px" viewBox="0 0 161.492 203.415" enable-background="new 0 0 161.492 162.732" xml:space="preserve"><g><path d="M81.167,10.691c-39.139,0-70.866,31.728-70.866,70.866s31.728,70.867,70.866,70.867c39.137,0,70.866-31.729,70.866-70.867   S120.304,10.691,81.167,10.691z M55.274,113.499c-1.878,2.879-4.342,4.843-7.39,5.893c-2.438,0.847-5.486,1.271-9.144,1.271h-7.823   V86.779h7.721c6.129,0,10.752,1.32,13.868,3.963c1.693,1.457,3.048,3.369,4.064,5.739c1.015,2.372,1.523,4.809,1.523,7.314   C58.094,107.386,57.154,110.62,55.274,113.499z M91.469,116.165c-3.454,3.439-7.621,5.157-12.497,5.157   c-4.91,0-9.093-1.718-12.547-5.157c-3.454-3.436-5.181-7.575-5.181-12.42c0-4.842,1.727-8.99,5.181-12.444   s7.637-5.182,12.547-5.182c4.876,0,9.043,1.718,12.497,5.156c3.455,3.438,5.182,7.593,5.182,12.47   C96.65,108.59,94.924,112.729,91.469,116.165z M109.449,111.975c2.236,2.338,4.878,3.506,7.926,3.506   c2.98,0,5.807-1.405,8.483-4.219h7.263c-1.253,3.018-3.318,5.446-6.195,7.291c-2.879,1.847-6.03,2.769-9.449,2.769   c-4.844,0-9.001-1.743-12.47-5.232c-3.473-3.487-5.207-7.652-5.207-12.496c0-4.774,1.718-8.881,5.155-12.318   c3.436-3.438,7.559-5.156,12.369-5.156c4.909,0,9.144,1.795,12.699,5.386c1.354,1.354,2.455,3.013,3.304,4.977h-7.114   c-1.455-1.691-2.971-2.869-4.546-3.529c-1.574-0.661-3.09-0.992-4.545-0.992c-2.98,0-5.563,1.169-7.748,3.506   s-3.276,5.08-3.276,8.229C106.098,106.879,107.215,109.638,109.449,111.975z M82.907,20.142   c33.138,0.924,59.719,28.057,59.719,61.415c0,0.151-0.01,0.301-0.014,0.453C111.202,77.264,86.567,51.897,82.907,20.142z"/><path d="M45.242,93.588c-1.694-0.643-3.98-0.966-6.857-0.966h-1.168v22.198h1.32c3.589,0,6.333-0.559,8.229-1.68   c3.386-2.003,5.08-5.109,5.08-9.318c0-2.274-0.61-4.362-1.829-6.262C48.798,95.66,47.206,94.336,45.242,93.588z"/><path d="M78.972,91.96c-3.149,0-5.842,1.152-8.077,3.454c-2.235,2.305-3.352,5.08-3.352,8.331c0,3.219,1.117,5.979,3.352,8.282   c2.235,2.302,4.928,3.454,8.077,3.454c3.149,0,5.843-1.143,8.077-3.43c2.236-2.286,3.353-5.055,3.353-8.307   c0-3.251-1.116-6.026-3.353-8.331C84.814,93.112,82.121,91.96,78.972,91.96z"/></g></svg>